# xmcd
#
# Track frame offsets: 
#        150
#        15142
#        36520
#        53270
#        68567
#        83720
#        99842
#        115382
#        128945
#        146125
#        162157
#        180295
#        197072
#        215290
#        232262
#        246355
#        263197
#        277582
#        300180
#        314347
#
# Disc length: 4408 seconds
#
# Revision: 0
# Processed by: cddbd v1.4PL0 Copyright (c) Steve Scherf et al.
# Submitted via: ExactAudioCopy v0.90b4
#
DISCID=02113614
DTITLE=Julio Iglesias - Best Collection Vol.4
DYEAR=1900
DGENRE=Latin
TTITLE0=De Nina A Mujer
TTITLE1=Volver A Empezar
TTITLE2=Despues De Ti
TTITLE3=Que Nadie Sepa Mi Surfir
TTITLE4=Isla En El Sol
TTITLE5=O Me Quieres O Me Dejas
TTITLE6=Y Pensar...
TTITLE7=Si, Madame
TTITLE8=Grande, Grande, Grande
TTITLE9=Como Tu
TTITLE10=Ni Te Tengo, Ni Te Olvido
TTITLE11=Tu Y Yo
TTITLE12=I've Got You Under My Skin
TTITLE13=Dire
TTITLE14=Abril En Portugal (Coimbra)
TTITLE15=Felicidades
TTITLE16=Esta Cobardia
TTITLE17=Coracao Apaixonado
TTITLE18=Ni Tu Gato Gris, Ni Tu Perro Fiel
TTITLE19=Todo Y Nada
EXTD=
EXTT0=
EXTT1=
EXTT2=
EXTT3=
EXTT4=
EXTT5=
EXTT6=
EXTT7=
EXTT8=
EXTT9=
EXTT10=
EXTT11=
EXTT12=
EXTT13=
EXTT14=
EXTT15=
EXTT16=
EXTT17=
EXTT18=
EXTT19=
PLAYORDER=
